<svg width="165" height="38" viewBox="0 0 165 38" fill="none" xmlns="http://www.w3.org/2000/svg">
<path d="M61.9089 36.9999H49.5864V0.63623H62.1574C67.5789 0.63623 71.8343 2.24608 74.9238 5.46578C78.0133 8.68547 79.558 13.1244 79.558 18.7825C79.558 24.4762 77.9955 28.9388 74.8705 32.1703C71.7574 35.39 67.4368 36.9999 61.9089 36.9999ZM56.1738 31.3003H61.5893C69.2124 31.3003 73.0239 27.1277 73.0239 18.7825C73.0239 14.6395 72.077 11.5323 70.183 9.46081C68.2891 7.37747 65.4896 6.33581 61.7846 6.33581H56.1738V31.3003Z" fill="#00162F"/>
<path d="M92.3808 37.5503C90.6171 37.5503 89.0546 37.2484 87.6933 36.6448C86.3439 36.0292 85.2667 35.0941 84.4618 33.8394C83.6569 32.5846 83.2544 31.0872 83.2544 29.3472C83.2544 28.1635 83.4497 27.11 83.8403 26.1867C84.231 25.2634 84.734 24.5117 85.3496 23.9317C85.9769 23.3517 86.7582 22.8604 87.6933 22.458C88.6284 22.0437 89.5577 21.7418 90.481 21.5524C91.4043 21.3512 92.4459 21.1855 93.606 21.0553C96.2338 20.7712 97.8496 20.5581 98.4533 20.4161C99.4594 20.1793 100.063 19.7828 100.264 19.2264C100.324 19.0489 100.353 18.8417 100.353 18.605V18.4984C100.353 17.149 99.9566 16.1133 99.1635 15.3912C98.3704 14.6573 97.2281 14.2904 95.7366 14.2904C94.257 14.2904 93.0378 14.6159 92.079 15.2669C91.132 15.918 90.4869 16.7466 90.1436 17.7527L84.1422 16.9004C84.8406 14.462 86.2078 12.5976 88.2437 11.3074C90.2916 10.0172 92.7774 9.37203 95.7011 9.37203C96.802 9.37203 97.8555 9.46672 98.8616 9.65612C99.8678 9.83367 100.862 10.1533 101.845 10.6149C102.827 11.0647 103.673 11.6388 104.384 12.3372C105.106 13.0238 105.686 13.9175 106.124 15.0183C106.562 16.1192 106.781 17.3621 106.781 18.747V36.9999H100.602V33.2534H100.389C99.7494 34.5082 98.7551 35.538 97.4057 36.3429C96.0562 37.1478 94.3813 37.5503 92.3808 37.5503ZM94.0499 32.8273C95.932 32.8273 97.453 32.2828 98.6131 31.1938C99.7849 30.1047 100.371 28.779 100.371 27.2165V24.0027C99.85 24.4288 97.8851 24.8727 94.476 25.3344C91.1261 25.8079 89.4511 27.11 89.4511 29.2406C89.4511 30.3888 89.8713 31.2766 90.7118 31.904C91.5522 32.5195 92.6649 32.8273 94.0499 32.8273Z" fill="#00162F"/>
<path d="M134.799 16.9359L128.94 17.5752C128.668 16.5927 128.105 15.7818 127.253 15.1426C126.413 14.4916 125.3 14.1661 123.915 14.1661C122.565 14.1661 121.441 14.462 120.541 15.0538C119.642 15.6339 119.198 16.3796 119.21 17.2911C119.198 18.0841 119.494 18.7352 120.097 19.2442C120.701 19.7413 121.69 20.1438 123.063 20.4516L127.715 21.4459C130.295 22.0022 132.213 22.89 133.467 24.1092C134.734 25.3166 135.373 26.891 135.385 28.8323C135.373 31.4127 134.284 33.5079 132.118 35.1178C129.952 36.7276 127.158 37.5325 123.737 37.5325C120.411 37.5325 117.73 36.8342 115.694 35.4374C113.658 34.0406 112.439 32.0815 112.036 29.5602L118.304 28.9565C118.576 30.1758 119.174 31.105 120.097 31.7442C121.033 32.3716 122.24 32.6852 123.72 32.6852C125.223 32.6852 126.442 32.3775 127.377 31.7619C128.324 31.1464 128.798 30.3652 128.798 29.4182C128.798 27.8912 127.573 26.8555 125.122 26.3109L120.47 25.3344C115.333 24.269 112.776 21.7063 112.8 17.6462C112.8 15.989 113.256 14.533 114.167 13.2783C115.09 12.0235 116.387 11.0588 118.056 10.3841C119.725 9.70939 121.648 9.37203 123.826 9.37203C126.951 9.37203 129.449 10.0408 131.319 11.3784C133.189 12.716 134.349 14.5685 134.799 16.9359Z" fill="#00162F"/>
<path d="M146.363 21.0198V36.9999H139.935V0.63623H146.221V14.3614H146.54C147.191 12.7752 148.192 11.5501 149.541 10.6859C150.902 9.81 152.607 9.37203 154.655 9.37203C157.531 9.37203 159.816 10.2716 161.508 12.0709C163.201 13.8701 164.047 16.3914 164.047 19.6348V36.9999H157.62V20.6291C157.62 18.7944 157.146 17.368 156.199 16.35C155.264 15.3202 153.95 14.8053 152.258 14.8053C150.494 14.8053 149.067 15.3616 147.978 16.4743C146.901 17.5752 146.363 19.0903 146.363 21.0198Z" fill="#00162F"/>
<path fill-rule="evenodd" clip-rule="evenodd" d="M13.5153 4.19852C13.9579 5.21051 13.4964 6.38974 12.4844 6.83239C10.3683 7.75799 8.51014 9.18931 7.07263 11.0016C5.63511 12.814 4.6621 14.9521 4.23907 17.2291C3.81604 19.5062 3.95596 21.8524 4.64652 24.0626C5.33707 26.2728 6.55712 28.2793 8.19957 29.907C9.84199 31.5346 11.8568 32.7337 14.0676 33.4C16.2784 34.0663 18.6183 34.1796 20.8828 33.7301C23.1473 33.2805 25.2679 32.2817 27.059 30.8206C28.8502 29.3594 30.2574 27.4803 31.1573 25.3472C31.5866 24.3295 32.7597 23.8526 33.7774 24.2819C34.7951 24.7112 35.2721 25.8843 34.8427 26.902C33.6894 29.636 31.8852 32.0456 29.5875 33.92C27.2898 35.7944 24.5686 37.0764 21.6617 37.6535C18.7548 38.2306 15.7511 38.0851 12.9134 37.2299C10.0756 36.3746 7.49056 34.8357 5.384 32.7482C3.27746 30.6607 1.71354 28.0881 0.828535 25.2555C-0.0564645 22.423 -0.235722 19.4164 0.306364 16.4985C0.848452 13.5806 2.09546 10.8398 3.93877 8.51589C5.78209 6.19194 8.16567 4.35553 10.8814 3.16764C11.8934 2.72499 13.0726 3.18653 13.5153 4.19852Z" fill="#00162F"/>
<path fill-rule="evenodd" clip-rule="evenodd" d="M16.5858 2.58579C16.9609 2.21071 17.4696 2 18 2C20.3638 2 22.7044 2.46558 24.8883 3.37017C27.0722 4.27475 29.0565 5.60062 30.7279 7.27208C32.3994 8.94353 33.7252 10.9278 34.6298 13.1117C35.5344 15.2956 36 17.6362 36 20C36 21.1046 35.1046 22 34 22H18C16.8954 22 16 21.1046 16 20V4C16 3.46957 16.2107 2.96086 16.5858 2.58579ZM20 6.14359V18H31.8564C31.6903 16.8494 31.3812 15.7213 30.9343 14.6424C30.2308 12.9439 29.1995 11.4005 27.8995 10.1005C26.5995 8.80049 25.0561 7.76925 23.3576 7.06569C22.2787 6.6188 21.1506 6.30967 20 6.14359Z" fill="#763FF9"/>
</svg>
